<?xml version="1.0" standalone="no"?>
<!DOCTYPE svg PUBLIC "-//W3C//DTD SVG 20010904//EN"
 "http://www.w3.org/TR/2001/REC-SVG-20010904/DTD/svg10.dtd">
<svg version="1.0" xmlns="http://www.w3.org/2000/svg"
 width="196.000000pt" height="196.000000pt" viewBox="0 0 196.000000 196.000000"
 preserveAspectRatio="xMidYMid meet">
<metadata>
Created by potrace 1.14, written by Peter Selinger 2001-2017
</metadata>
<g transform="translate(0.000000,196.000000) scale(0.100000,-0.100000)"
fill="#000000" stroke="none">
<path d="M453 1868 c-4 -7 -8 -20 -8 -28 0 -10 -9 -14 -27 -13 -25 2 -27 -1
-33 -50 -4 -29 -8 -63 -10 -77 -4 -27 -17 -153 -20 -185 -1 -11 -5 -47 -9 -80
-4 -33 -9 -80 -12 -105 -3 -25 -7 -61 -9 -80 -3 -19 -7 -62 -10 -95 -3 -33 -8
-71 -10 -85 -3 -14 -7 -54 -10 -90 -3 -36 -8 -76 -10 -90 -2 -14 -7 -54 -10
-90 -3 -36 -8 -76 -10 -90 -2 -14 -7 -54 -10 -90 -3 -36 -8 -76 -10 -90 -2
-14 -7 -54 -10 -90 -3 -36 -10 -102 -16 -146 -5 -45 -11 -105 -14 -133 l-4
-51 32 -1 c18 0 41 -2 52 -4 11 -3 52 -7 90 -11 39 -3 73 -8 78 -11 4 -2 7 9
7 26 0 26 3 30 26 28 20 -2 27 3 29 18 5 43 16 142 20 175 15 122 31 264 40
350 3 30 14 134 23 215 6 52 10 60 27 59 33 -2 158 -14 185 -18 14 -2 54 -7
90 -11 36 -3 81 -8 100 -10 19 -3 118 -14 220 -25 102 -11 199 -22 215 -25 17
-2 63 -7 103 -11 l72 -7 0 28 c0 25 3 27 30 23 25 -4 30 -1 30 16 1 12 3 37 5
56 13 97 23 195 21 197 -3 3 -61 12 -126 18 -30 3 -71 7 -90 10 -51 6 -117 14
-180 20 -30 3 -71 8 -90 10 -19 3 -60 7 -90 10 -30 3 -66 8 -80 10 -14 2 -56
6 -95 10 -38 3 -77 8 -85 10 -8 2 -46 7 -85 10 -38 3 -79 7 -90 9 -11 3 -25 5
-32 5 -6 1 -10 9 -8 20 2 10 6 54 10 97 4 43 9 86 10 94 3 20 39 20 225 -1 85
-10 182 -21 215 -24 33 -3 71 -8 85 -10 14 -2 54 -7 90 -10 36 -3 81 -7 100
-10 50 -7 106 -13 175 -20 33 -4 72 -9 88 -11 19 -3 27 0 28 11 1 8 2 21 3 28
1 7 13 11 29 9 15 -1 27 1 28 5 0 4 2 22 4 40 2 17 8 73 15 123 6 51 9 95 6
97 -3 3 -18 6 -33 8 -37 3 -152 16 -183 20 -48 6 -163 19 -280 30 -30 3 -71 7
-90 10 -19 2 -60 7 -90 10 -30 3 -71 8 -90 10 -36 5 -187 22 -275 31 -27 3
-63 7 -80 9 -16 2 -59 7 -95 11 -36 3 -68 8 -72 10 -4 3 -10 -1 -15 -8z"/>
<path d="M984 266 c-3 -8 -16 -17 -29 -20 -29 -7 -38 -40 -17 -66 12 -14 24
-18 40 -14 19 6 22 13 22 60 0 53 -6 67 -16 40z m-6 -62 c-4 -23 -26 -30 -34
-10 -8 20 15 51 29 37 5 -5 7 -17 5 -27z"/>
<path d="M1029 275 c-1 -11 0 -96 1 -107 2 -7 5 1 9 17 5 22 12 30 28 30 12 0
25 3 29 8 4 4 -7 7 -24 7 -22 0 -32 5 -32 15 0 8 3 15 8 16 4 0 17 2 29 3 41
5 37 16 -5 16 -23 0 -42 -2 -43 -5z"/>
<path d="M1514 255 c15 -23 15 -28 1 -56 -21 -39 -13 -48 10 -13 l17 26 19
-28 c12 -18 19 -23 19 -13 0 8 -6 24 -14 34 -12 17 -12 23 6 47 10 16 15 28 9
28 -5 0 -17 -10 -25 -21 l-14 -21 -14 21 c-7 11 -17 21 -22 21 -4 0 -1 -11 8
-25z"/>
<path d="M608 239 c-28 -16 -23 -58 8 -69 26 -10 44 -6 44 9 0 5 -11 6 -25 3
-14 -2 -25 0 -25 5 0 5 12 10 27 11 34 3 40 9 27 30 -14 21 -33 25 -56 11z
m42 -18 c0 -10 -26 -9 -36 2 -4 4 2 7 14 7 12 0 22 -4 22 -9z"/>
<path d="M697 232 c-10 -10 -17 -24 -17 -30 0 -21 29 -39 54 -35 26 5 27 11
17 76 -2 14 -38 7 -54 -11z m41 -24 c-4 -29 -38 -38 -38 -10 0 22 8 32 27 32
9 0 13 -8 11 -22z"/>
<path d="M779 238 c-5 -37 -1 -62 9 -66 9 -3 11 4 8 22 -3 19 1 30 17 41 22
15 22 15 -6 13 -15 -1 -27 -6 -28 -10z"/>
<path d="M848 239 c-27 -15 -23 -58 7 -69 26 -10 58 -3 50 10 -3 5 -14 6 -24
3 -10 -3 -22 0 -25 6 -5 7 4 11 23 11 32 0 41 16 19 38 -14 14 -27 15 -50 1z
m42 -13 c0 -9 -30 -14 -35 -6 -4 6 3 10 14 10 12 0 21 -2 21 -4z"/>
<path d="M1121 245 c-9 -41 -8 -52 5 -66 9 -10 24 -14 38 -12 20 4 24 10 21
37 -2 17 -4 36 -4 41 -1 6 -5 4 -10 -4 -5 -7 -6 -22 -4 -32 3 -10 0 -19 -6
-19 -6 0 -14 0 -18 0 -5 -1 -11 14 -14 32 -4 18 -7 29 -8 23z"/>
<path d="M1212 238 c-14 -14 2 -38 24 -38 8 0 14 -4 14 -10 0 -14 -23 -13 -38
2 -9 9 -12 9 -12 0 0 -20 39 -35 56 -21 20 17 18 26 -13 44 l-28 16 28 -4 c29
-5 37 7 11 17 -22 8 -28 8 -42 -6z"/>
<path d="M1289 245 c-5 -46 -5 -66 1 -76 4 -6 9 5 12 25 2 20 0 42 -4 49 -4 6
-8 8 -9 2z"/>
<path d="M1332 238 c-17 -17 -15 -44 4 -62 21 -22 31 -20 49 8 29 43 -18 89
-53 54z m46 -30 c-2 -13 -10 -23 -18 -23 -8 0 -16 10 -18 23 -3 17 2 22 18 22
16 0 21 -5 18 -22z"/>
<path d="M1419 240 c-5 -21 -5 -57 0 -70 3 -9 8 -2 11 20 7 47 40 56 40 11 0
-17 4 -31 8 -31 13 0 13 57 -1 68 -13 11 -56 13 -58 2z"/>
</g>
</svg>
