<svg version="1.1" xmlns="http://www.w3.org/2000/svg" xmlns:xlink="http://www.w3.org/1999/xlink" viewBox="0 0 172 172"><g fill="none" fill-rule="nonzero" stroke="none" stroke-width="1" stroke-linecap="butt" stroke-linejoin="miter" stroke-miterlimit="10" stroke-dasharray="" stroke-dashoffset="0" font-family="none" font-weight="none" font-size="none" text-anchor="none" style="mix-blend-mode: normal"><path d="M0,172v-172h172v172z" fill="#333333"></path><g fill="#ffffff"><path d="M86,21.5c-2.44898,0 -4.8965,0.83094 -6.89197,2.49854l-55.45593,46.33838c-2.05594,1.71731 -2.78774,4.71207 -1.42249,7.01794c1.73881,2.93475 5.58668,3.50811 8.08875,1.41724l54.81555,-45.79773c0.50256,-0.41925 1.22962,-0.41925 1.73218,0l54.81555,45.80298c1.00512,0.84119 2.22336,1.24927 3.43811,1.24927c1.86781,0 3.72118,-0.96935 4.74512,-2.83447c1.24969,-2.279 0.5139,-5.15748 -1.48022,-6.82373l-8.63464,-7.21741v-22.8385c0,-2.96969 -2.40531,-5.375 -5.375,-5.375h-5.375c-2.96969,0 -5.375,2.40531 -5.375,5.375v9.36426l-30.73303,-25.67822c-1.99547,-1.66759 -4.44298,-2.49854 -6.89197,-2.49854zM86,43l-53.75,44.91065v38.40185c0,7.4175 6.02,13.4375 13.4375,13.4375h21.5c4.46125,0 8.0625,-3.60125 8.0625,-8.0625v-26.875c0,-2.95625 2.41875,-5.375 5.375,-5.375h10.75c2.95625,0 5.375,2.41875 5.375,5.375v26.875c0,4.46125 3.60125,8.0625 8.0625,8.0625h21.5c7.4175,0 13.4375,-6.02 13.4375,-13.4375v-38.40185z"></path></g></g></svg>