<svg version="1.1" xmlns="http://www.w3.org/2000/svg" xmlns:xlink="http://www.w3.org/1999/xlink" viewBox="0 0 172 172"><g fill="none" fill-rule="nonzero" stroke="none" stroke-width="1" stroke-linecap="butt" stroke-linejoin="miter" stroke-miterlimit="10" stroke-dasharray="" stroke-dashoffset="0" font-family="none" font-weight="none" font-size="none" text-anchor="none" style="mix-blend-mode: normal"><path d="M0,172v-172h172v172z" fill="#333333"></path><g fill="#666666"><path d="M6.88,6.88v147.92h50.6325l-14.62,-14.62l2.795,-2.795c-0.5375,-0.29562 -0.9675,-0.84656 -0.9675,-1.505c0,-0.95406 0.76594,-1.72 1.72,-1.72c0.65844,0 1.20938,0.43 1.505,0.9675l4.6225,-4.6225c-0.5375,-0.29562 -0.9675,-0.84656 -0.9675,-1.505c0,-0.95406 0.76594,-1.72 1.72,-1.72c0.65844,0 1.20938,0.43 1.505,0.9675l4.6225,-4.6225c-0.5375,-0.29562 -0.9675,-0.84656 -0.9675,-1.505c0,-0.95406 0.76594,-1.72 1.72,-1.72c0.65844,0 1.20938,0.43 1.505,0.9675l4.6225,-4.6225c-0.5375,-0.29562 -0.9675,-0.84656 -0.9675,-1.505c0,-0.95406 0.76594,-1.72 1.72,-1.72c0.65844,0 1.20938,0.43 1.505,0.9675l2.2575,-2.365l2.365,-2.2575c-0.5375,-0.29562 -0.9675,-0.84656 -0.9675,-1.505c0,-0.95406 0.76594,-1.72 1.72,-1.72c0.65844,0 1.20938,0.43 1.505,0.9675l4.6225,-4.6225c-0.5375,-0.29562 -0.9675,-0.84656 -0.9675,-1.505c0,-0.95406 0.76594,-1.72 1.72,-1.72c0.65844,0 1.20938,0.43 1.505,0.9675l4.6225,-4.6225c-0.5375,-0.29562 -0.9675,-0.84656 -0.9675,-1.505c0,-0.95406 0.76594,-1.72 1.72,-1.72c0.65844,0 1.20938,0.43 1.505,0.9675l4.6225,-4.6225c-0.5375,-0.29562 -0.9675,-0.84656 -0.9675,-1.505c0,-0.95406 0.76594,-1.72 1.72,-1.72c0.65844,0 1.20938,0.43 1.505,0.9675l4.6225,-4.6225c-0.5375,-0.29562 -0.9675,-0.84656 -0.9675,-1.505c0,-0.95406 0.76594,-1.72 1.72,-1.72c0.65844,0 1.20938,0.43 1.505,0.9675l4.6225,-4.6225c-0.5375,-0.29562 -0.9675,-0.84656 -0.9675,-1.505c0,-0.95406 0.76594,-1.72 1.72,-1.72c0.65844,0 1.20938,0.43 1.505,0.9675l0.43,-0.5375l4.1925,-4.085c-0.5375,-0.29562 -0.9675,-0.84656 -0.9675,-1.505c0,-0.95406 0.76594,-1.72 1.72,-1.72c0.65844,0 1.20938,0.43 1.505,0.9675l4.6225,-4.6225c-0.5375,-0.29562 -0.9675,-0.84656 -0.9675,-1.505c0,-0.95406 0.76594,-1.72 1.72,-1.72c0.65844,0 1.20938,0.43 1.505,0.9675l1.29,-1.29l9.245,-9.3525v-41.925zM25.8,17.2c0.95406,0 1.72,0.76594 1.72,1.72c0,0.95406 -0.76594,1.72 -1.72,1.72c-0.95406,0 -1.72,-0.76594 -1.72,-1.72c0,-0.95406 0.76594,-1.72 1.72,-1.72zM39.56,17.2c0.95406,0 1.72,0.76594 1.72,1.72c0,0.95406 -0.76594,1.72 -1.72,1.72c-0.95406,0 -1.72,-0.76594 -1.72,-1.72c0,-0.95406 0.76594,-1.72 1.72,-1.72zM53.32,17.2c0.95406,0 1.72,0.76594 1.72,1.72c0,0.95406 -0.76594,1.72 -1.72,1.72c-0.95406,0 -1.72,-0.76594 -1.72,-1.72c0,-0.95406 0.76594,-1.72 1.72,-1.72zM67.08,17.2c0.95406,0 1.72,0.76594 1.72,1.72c0,0.95406 -0.76594,1.72 -1.72,1.72c-0.95406,0 -1.72,-0.76594 -1.72,-1.72c0,-0.95406 0.76594,-1.72 1.72,-1.72zM80.84,17.2c0.95406,0 1.72,0.76594 1.72,1.72c0,0.95406 -0.76594,1.72 -1.72,1.72c-0.95406,0 -1.72,-0.76594 -1.72,-1.72c0,-0.95406 0.76594,-1.72 1.72,-1.72zM94.6,17.2c0.95406,0 1.72,0.76594 1.72,1.72c0,0.95406 -0.76594,1.72 -1.72,1.72c-0.95406,0 -1.72,-0.76594 -1.72,-1.72c0,-0.95406 0.76594,-1.72 1.72,-1.72zM108.36,17.2c0.95406,0 1.72,0.76594 1.72,1.72c0,0.95406 -0.76594,1.72 -1.72,1.72c-0.95406,0 -1.72,-0.76594 -1.72,-1.72c0,-0.95406 0.76594,-1.72 1.72,-1.72zM122.12,17.2c0.95406,0 1.72,0.76594 1.72,1.72c0,0.95406 -0.76594,1.72 -1.72,1.72c-0.95406,0 -1.72,-0.76594 -1.72,-1.72c0,-0.95406 0.76594,-1.72 1.72,-1.72zM18.92,24.08c0.95406,0 1.72,0.76594 1.72,1.72c0,0.95406 -0.76594,1.72 -1.72,1.72c-0.95406,0 -1.72,-0.76594 -1.72,-1.72c0,-0.95406 0.76594,-1.72 1.72,-1.72zM25.8,24.08c0.95406,0 1.72,0.76594 1.72,1.72c0,0.95406 -0.76594,1.72 -1.72,1.72c-0.95406,0 -1.72,-0.76594 -1.72,-1.72c0,-0.95406 0.76594,-1.72 1.72,-1.72zM32.68,24.08c0.95406,0 1.72,0.76594 1.72,1.72c0,0.95406 -0.76594,1.72 -1.72,1.72c-0.95406,0 -1.72,-0.76594 -1.72,-1.72c0,-0.95406 0.76594,-1.72 1.72,-1.72zM39.56,24.08c0.95406,0 1.72,0.76594 1.72,1.72c0,0.95406 -0.76594,1.72 -1.72,1.72c-0.95406,0 -1.72,-0.76594 -1.72,-1.72c0,-0.95406 0.76594,-1.72 1.72,-1.72zM46.44,24.08c0.95406,0 1.72,0.76594 1.72,1.72c0,0.95406 -0.76594,1.72 -1.72,1.72c-0.95406,0 -1.72,-0.76594 -1.72,-1.72c0,-0.95406 0.76594,-1.72 1.72,-1.72zM53.32,24.08c0.95406,0 1.72,0.76594 1.72,1.72c0,0.95406 -0.76594,1.72 -1.72,1.72c-0.95406,0 -1.72,-0.76594 -1.72,-1.72c0,-0.95406 0.76594,-1.72 1.72,-1.72zM60.2,24.08c0.95406,0 1.72,0.76594 1.72,1.72c0,0.95406 -0.76594,1.72 -1.72,1.72c-0.95406,0 -1.72,-0.76594 -1.72,-1.72c0,-0.95406 0.76594,-1.72 1.72,-1.72zM67.08,24.08c0.95406,0 1.72,0.76594 1.72,1.72c0,0.95406 -0.76594,1.72 -1.72,1.72c-0.95406,0 -1.72,-0.76594 -1.72,-1.72c0,-0.95406 0.76594,-1.72 1.72,-1.72zM73.96,24.08c0.95406,0 1.72,0.76594 1.72,1.72c0,0.95406 -0.76594,1.72 -1.72,1.72c-0.95406,0 -1.72,-0.76594 -1.72,-1.72c0,-0.95406 0.76594,-1.72 1.72,-1.72zM80.84,24.08c0.95406,0 1.72,0.76594 1.72,1.72c0,0.95406 -0.76594,1.72 -1.72,1.72c-0.95406,0 -1.72,-0.76594 -1.72,-1.72c0,-0.95406 0.76594,-1.72 1.72,-1.72zM87.72,24.08c0.95406,0 1.72,0.76594 1.72,1.72c0,0.95406 -0.76594,1.72 -1.72,1.72c-0.95406,0 -1.72,-0.76594 -1.72,-1.72c0,-0.95406 0.76594,-1.72 1.72,-1.72zM94.6,24.08c0.95406,0 1.72,0.76594 1.72,1.72c0,0.95406 -0.76594,1.72 -1.72,1.72c-0.95406,0 -1.72,-0.76594 -1.72,-1.72c0,-0.95406 0.76594,-1.72 1.72,-1.72zM101.48,24.08c0.95406,0 1.72,0.76594 1.72,1.72c0,0.95406 -0.76594,1.72 -1.72,1.72c-0.95406,0 -1.72,-0.76594 -1.72,-1.72c0,-0.95406 0.76594,-1.72 1.72,-1.72zM108.36,24.08c0.95406,0 1.72,0.76594 1.72,1.72c0,0.95406 -0.76594,1.72 -1.72,1.72c-0.95406,0 -1.72,-0.76594 -1.72,-1.72c0,-0.95406 0.76594,-1.72 1.72,-1.72zM115.24,24.08c0.95406,0 1.72,0.76594 1.72,1.72c0,0.95406 -0.76594,1.72 -1.72,1.72c-0.95406,0 -1.72,-0.76594 -1.72,-1.72c0,-0.95406 0.76594,-1.72 1.72,-1.72zM122.12,24.08c0.95406,0 1.72,0.76594 1.72,1.72c0,0.95406 -0.76594,1.72 -1.72,1.72c-0.95406,0 -1.72,-0.76594 -1.72,-1.72c0,-0.95406 0.76594,-1.72 1.72,-1.72zM25.8,30.96c0.95406,0 1.72,0.76594 1.72,1.72c0,0.95406 -0.76594,1.72 -1.72,1.72c-0.95406,0 -1.72,-0.76594 -1.72,-1.72c0,-0.95406 0.76594,-1.72 1.72,-1.72zM39.56,30.96c0.95406,0 1.72,0.76594 1.72,1.72c0,0.95406 -0.76594,1.72 -1.72,1.72c-0.95406,0 -1.72,-0.76594 -1.72,-1.72c0,-0.95406 0.76594,-1.72 1.72,-1.72zM53.32,30.96c0.95406,0 1.72,0.76594 1.72,1.72c0,0.95406 -0.76594,1.72 -1.72,1.72c-0.95406,0 -1.72,-0.76594 -1.72,-1.72c0,-0.95406 0.76594,-1.72 1.72,-1.72zM67.08,30.96c0.95406,0 1.72,0.76594 1.72,1.72c0,0.95406 -0.76594,1.72 -1.72,1.72c-0.95406,0 -1.72,-0.76594 -1.72,-1.72c0,-0.95406 0.76594,-1.72 1.72,-1.72zM80.84,30.96c0.95406,0 1.72,0.76594 1.72,1.72c0,0.95406 -0.76594,1.72 -1.72,1.72c-0.95406,0 -1.72,-0.76594 -1.72,-1.72c0,-0.95406 0.76594,-1.72 1.72,-1.72zM94.6,30.96c0.95406,0 1.72,0.76594 1.72,1.72c0,0.95406 -0.76594,1.72 -1.72,1.72c-0.95406,0 -1.72,-0.76594 -1.72,-1.72c0,-0.95406 0.76594,-1.72 1.72,-1.72zM108.36,30.96c0.95406,0 1.72,0.76594 1.72,1.72c0,0.95406 -0.76594,1.72 -1.72,1.72c-0.95406,0 -1.72,-0.76594 -1.72,-1.72c0,-0.95406 0.76594,-1.72 1.72,-1.72zM122.12,30.96c0.95406,0 1.72,0.76594 1.72,1.72c0,0.95406 -0.76594,1.72 -1.72,1.72c-0.95406,0 -1.72,-0.76594 -1.72,-1.72c0,-0.95406 0.76594,-1.72 1.72,-1.72zM18.92,37.84c0.95406,0 1.72,0.76594 1.72,1.72c0,0.95406 -0.76594,1.72 -1.72,1.72c-0.95406,0 -1.72,-0.76594 -1.72,-1.72c0,-0.95406 0.76594,-1.72 1.72,-1.72zM25.8,37.84c0.95406,0 1.72,0.76594 1.72,1.72c0,0.95406 -0.76594,1.72 -1.72,1.72c-0.95406,0 -1.72,-0.76594 -1.72,-1.72c0,-0.95406 0.76594,-1.72 1.72,-1.72zM32.68,37.84c0.95406,0 1.72,0.76594 1.72,1.72c0,0.95406 -0.76594,1.72 -1.72,1.72c-0.95406,0 -1.72,-0.76594 -1.72,-1.72c0,-0.95406 0.76594,-1.72 1.72,-1.72zM39.56,37.84c0.95406,0 1.72,0.76594 1.72,1.72c0,0.95406 -0.76594,1.72 -1.72,1.72c-0.95406,0 -1.72,-0.76594 -1.72,-1.72c0,-0.95406 0.76594,-1.72 1.72,-1.72zM46.44,37.84c0.95406,0 1.72,0.76594 1.72,1.72c0,0.95406 -0.76594,1.72 -1.72,1.72c-0.95406,0 -1.72,-0.76594 -1.72,-1.72c0,-0.95406 0.76594,-1.72 1.72,-1.72zM53.32,37.84c0.95406,0 1.72,0.76594 1.72,1.72c0,0.95406 -0.76594,1.72 -1.72,1.72c-0.95406,0 -1.72,-0.76594 -1.72,-1.72c0,-0.95406 0.76594,-1.72 1.72,-1.72zM60.2,37.84c0.95406,0 1.72,0.76594 1.72,1.72c0,0.95406 -0.76594,1.72 -1.72,1.72c-0.95406,0 -1.72,-0.76594 -1.72,-1.72c0,-0.95406 0.76594,-1.72 1.72,-1.72zM67.08,37.84c0.95406,0 1.72,0.76594 1.72,1.72c0,0.95406 -0.76594,1.72 -1.72,1.72c-0.95406,0 -1.72,-0.76594 -1.72,-1.72c0,-0.95406 0.76594,-1.72 1.72,-1.72zM73.96,37.84c0.95406,0 1.72,0.76594 1.72,1.72c0,0.95406 -0.76594,1.72 -1.72,1.72c-0.95406,0 -1.72,-0.76594 -1.72,-1.72c0,-0.95406 0.76594,-1.72 1.72,-1.72zM80.84,37.84c0.95406,0 1.72,0.76594 1.72,1.72c0,0.95406 -0.76594,1.72 -1.72,1.72c-0.95406,0 -1.72,-0.76594 -1.72,-1.72c0,-0.95406 0.76594,-1.72 1.72,-1.72zM87.72,37.84c0.95406,0 1.72,0.76594 1.72,1.72c0,0.95406 -0.76594,1.72 -1.72,1.72c-0.95406,0 -1.72,-0.76594 -1.72,-1.72c0,-0.95406 0.76594,-1.72 1.72,-1.72zM94.6,37.84c0.95406,0 1.72,0.76594 1.72,1.72c0,0.95406 -0.76594,1.72 -1.72,1.72c-0.95406,0 -1.72,-0.76594 -1.72,-1.72c0,-0.95406 0.76594,-1.72 1.72,-1.72zM101.48,37.84c0.95406,0 1.72,0.76594 1.72,1.72c0,0.95406 -0.76594,1.72 -1.72,1.72c-0.95406,0 -1.72,-0.76594 -1.72,-1.72c0,-0.95406 0.76594,-1.72 1.72,-1.72zM108.36,37.84c0.95406,0 1.72,0.76594 1.72,1.72c0,0.95406 -0.76594,1.72 -1.72,1.72c-0.95406,0 -1.72,-0.76594 -1.72,-1.72c0,-0.95406 0.76594,-1.72 1.72,-1.72zM115.24,37.84c0.95406,0 1.72,0.76594 1.72,1.72c0,0.95406 -0.76594,1.72 -1.72,1.72c-0.95406,0 -1.72,-0.76594 -1.72,-1.72c0,-0.95406 0.76594,-1.72 1.72,-1.72zM122.12,37.84c0.95406,0 1.72,0.76594 1.72,1.72c0,0.95406 -0.76594,1.72 -1.72,1.72c-0.95406,0 -1.72,-0.76594 -1.72,-1.72c0,-0.95406 0.76594,-1.72 1.72,-1.72zM25.8,44.72c0.95406,0 1.72,0.76594 1.72,1.72c0,0.95406 -0.76594,1.72 -1.72,1.72c-0.95406,0 -1.72,-0.76594 -1.72,-1.72c0,-0.95406 0.76594,-1.72 1.72,-1.72zM39.56,44.72c0.95406,0 1.72,0.76594 1.72,1.72c0,0.95406 -0.76594,1.72 -1.72,1.72c-0.95406,0 -1.72,-0.76594 -1.72,-1.72c0,-0.95406 0.76594,-1.72 1.72,-1.72zM53.32,44.72c0.95406,0 1.72,0.76594 1.72,1.72c0,0.95406 -0.76594,1.72 -1.72,1.72c-0.95406,0 -1.72,-0.76594 -1.72,-1.72c0,-0.95406 0.76594,-1.72 1.72,-1.72zM67.08,44.72c0.95406,0 1.72,0.76594 1.72,1.72c0,0.95406 -0.76594,1.72 -1.72,1.72c-0.95406,0 -1.72,-0.76594 -1.72,-1.72c0,-0.95406 0.76594,-1.72 1.72,-1.72zM80.84,44.72c0.95406,0 1.72,0.76594 1.72,1.72c0,0.95406 -0.76594,1.72 -1.72,1.72c-0.95406,0 -1.72,-0.76594 -1.72,-1.72c0,-0.95406 0.76594,-1.72 1.72,-1.72zM94.6,44.72c0.95406,0 1.72,0.76594 1.72,1.72c0,0.95406 -0.76594,1.72 -1.72,1.72c-0.95406,0 -1.72,-0.76594 -1.72,-1.72c0,-0.95406 0.76594,-1.72 1.72,-1.72zM108.36,44.72c0.95406,0 1.72,0.76594 1.72,1.72c0,0.95406 -0.76594,1.72 -1.72,1.72c-0.95406,0 -1.72,-0.76594 -1.72,-1.72c0,-0.95406 0.76594,-1.72 1.72,-1.72zM122.12,44.72c0.95406,0 1.72,0.76594 1.72,1.72c0,0.95406 -0.76594,1.72 -1.72,1.72c-0.95406,0 -1.72,-0.76594 -1.72,-1.72c0,-0.95406 0.76594,-1.72 1.72,-1.72zM18.92,51.6c0.95406,0 1.72,0.76594 1.72,1.72c0,0.95406 -0.76594,1.72 -1.72,1.72c-0.95406,0 -1.72,-0.76594 -1.72,-1.72c0,-0.95406 0.76594,-1.72 1.72,-1.72zM25.8,51.6c0.95406,0 1.72,0.76594 1.72,1.72c0,0.95406 -0.76594,1.72 -1.72,1.72c-0.95406,0 -1.72,-0.76594 -1.72,-1.72c0,-0.95406 0.76594,-1.72 1.72,-1.72zM32.68,51.6c0.95406,0 1.72,0.76594 1.72,1.72c0,0.95406 -0.76594,1.72 -1.72,1.72c-0.95406,0 -1.72,-0.76594 -1.72,-1.72c0,-0.95406 0.76594,-1.72 1.72,-1.72zM39.56,51.6c0.95406,0 1.72,0.76594 1.72,1.72c0,0.95406 -0.76594,1.72 -1.72,1.72c-0.95406,0 -1.72,-0.76594 -1.72,-1.72c0,-0.95406 0.76594,-1.72 1.72,-1.72zM46.44,51.6c0.95406,0 1.72,0.76594 1.72,1.72c0,0.95406 -0.76594,1.72 -1.72,1.72c-0.95406,0 -1.72,-0.76594 -1.72,-1.72c0,-0.95406 0.76594,-1.72 1.72,-1.72zM53.32,51.6c0.95406,0 1.72,0.76594 1.72,1.72c0,0.95406 -0.76594,1.72 -1.72,1.72c-0.95406,0 -1.72,-0.76594 -1.72,-1.72c0,-0.95406 0.76594,-1.72 1.72,-1.72zM60.2,51.6c0.95406,0 1.72,0.76594 1.72,1.72c0,0.95406 -0.76594,1.72 -1.72,1.72c-0.95406,0 -1.72,-0.76594 -1.72,-1.72c0,-0.95406 0.76594,-1.72 1.72,-1.72zM67.08,51.6c0.95406,0 1.72,0.76594 1.72,1.72c0,0.95406 -0.76594,1.72 -1.72,1.72c-0.95406,0 -1.72,-0.76594 -1.72,-1.72c0,-0.95406 0.76594,-1.72 1.72,-1.72zM73.96,51.6c0.95406,0 1.72,0.76594 1.72,1.72c0,0.95406 -0.76594,1.72 -1.72,1.72c-0.95406,0 -1.72,-0.76594 -1.72,-1.72c0,-0.95406 0.76594,-1.72 1.72,-1.72zM80.84,51.6c0.95406,0 1.72,0.76594 1.72,1.72c0,0.95406 -0.76594,1.72 -1.72,1.72c-0.95406,0 -1.72,-0.76594 -1.72,-1.72c0,-0.95406 0.76594,-1.72 1.72,-1.72zM87.72,51.6c0.95406,0 1.72,0.76594 1.72,1.72c0,0.95406 -0.76594,1.72 -1.72,1.72c-0.95406,0 -1.72,-0.76594 -1.72,-1.72c0,-0.95406 0.76594,-1.72 1.72,-1.72zM94.6,51.6c0.95406,0 1.72,0.76594 1.72,1.72c0,0.95406 -0.76594,1.72 -1.72,1.72c-0.95406,0 -1.72,-0.76594 -1.72,-1.72c0,-0.95406 0.76594,-1.72 1.72,-1.72zM101.48,51.6c0.95406,0 1.72,0.76594 1.72,1.72c0,0.95406 -0.76594,1.72 -1.72,1.72c-0.95406,0 -1.72,-0.76594 -1.72,-1.72c0,-0.95406 0.76594,-1.72 1.72,-1.72zM108.36,51.6c0.95406,0 1.72,0.76594 1.72,1.72c0,0.95406 -0.76594,1.72 -1.72,1.72c-0.95406,0 -1.72,-0.76594 -1.72,-1.72c0,-0.95406 0.76594,-1.72 1.72,-1.72zM115.24,51.6c0.95406,0 1.72,0.76594 1.72,1.72c0,0.95406 -0.76594,1.72 -1.72,1.72c-0.95406,0 -1.72,-0.76594 -1.72,-1.72c0,-0.95406 0.76594,-1.72 1.72,-1.72zM122.12,51.6c0.95406,0 1.72,0.76594 1.72,1.72c0,0.95406 -0.76594,1.72 -1.72,1.72c-0.95406,0 -1.72,-0.76594 -1.72,-1.72c0,-0.95406 0.76594,-1.72 1.72,-1.72zM140.18,52.5675l-10.4275,10.4275l8.17,8.0625c1.34375,1.34375 1.34375,3.60125 0,4.945c-0.67187,0.67188 -1.58562,0.9675 -2.4725,0.9675c-0.88687,0 -1.80062,-0.29562 -2.4725,-0.9675l-8.0625,-8.17l-5.4825,5.4825l10.75,10.75c1.34375,1.34375 1.34375,3.49375 0,4.8375c-0.67187,0.67188 -1.58562,0.9675 -2.4725,0.9675c-0.88687,0 -1.69312,-0.29562 -2.365,-0.9675l-10.75,-10.75l-5.4825,5.4825l8.17,8.0625c1.34375,1.34375 1.34375,3.60125 0,4.945c-0.67187,0.67188 -1.58562,0.9675 -2.4725,0.9675c-0.88687,0 -1.80062,-0.29562 -2.4725,-0.9675l-8.0625,-8.17l-5.4825,5.4825l10.75,10.75c1.34375,1.34375 1.34375,3.49375 0,4.8375c-0.67187,0.67188 -1.58562,0.9675 -2.4725,0.9675c-0.88687,0 -1.69312,-0.29562 -2.365,-0.9675l-10.75,-10.75l-5.4825,5.4825l8.17,8.0625c1.34375,1.34375 1.34375,3.60125 0,4.945c-0.67187,0.67188 -1.58562,0.9675 -2.4725,0.9675c-0.88687,0 -1.80062,-0.29562 -2.4725,-0.9675l-8.0625,-8.17l-5.4825,5.4825l10.75,10.75c1.34375,1.34375 1.34375,3.49375 0,4.8375c-0.67187,0.67188 -1.58562,0.9675 -2.4725,0.9675c-0.88687,0 -1.69312,-0.29562 -2.365,-0.9675l-10.75,-10.75l-5.4825,5.4825l8.17,8.0625c1.34375,1.34375 1.34375,3.60125 0,4.945c-0.67187,0.67188 -1.58562,0.9675 -2.4725,0.9675c-0.88687,0 -1.80062,-0.29562 -2.4725,-0.9675l-8.0625,-8.17l-10.4275,10.4275l25.9075,25.8l87.505,-87.505zM25.8,58.48c0.95406,0 1.72,0.76594 1.72,1.72c0,0.95406 -0.76594,1.72 -1.72,1.72c-0.95406,0 -1.72,-0.76594 -1.72,-1.72c0,-0.95406 0.76594,-1.72 1.72,-1.72zM39.56,58.48c0.95406,0 1.72,0.76594 1.72,1.72c0,0.95406 -0.76594,1.72 -1.72,1.72c-0.95406,0 -1.72,-0.76594 -1.72,-1.72c0,-0.95406 0.76594,-1.72 1.72,-1.72zM53.32,58.48c0.95406,0 1.72,0.76594 1.72,1.72c0,0.95406 -0.76594,1.72 -1.72,1.72c-0.95406,0 -1.72,-0.76594 -1.72,-1.72c0,-0.95406 0.76594,-1.72 1.72,-1.72zM67.08,58.48c0.95406,0 1.72,0.76594 1.72,1.72c0,0.95406 -0.76594,1.72 -1.72,1.72c-0.95406,0 -1.72,-0.76594 -1.72,-1.72c0,-0.95406 0.76594,-1.72 1.72,-1.72zM80.84,58.48c0.95406,0 1.72,0.76594 1.72,1.72c0,0.95406 -0.76594,1.72 -1.72,1.72c-0.95406,0 -1.72,-0.76594 -1.72,-1.72c0,-0.95406 0.76594,-1.72 1.72,-1.72zM94.6,58.48c0.95406,0 1.72,0.76594 1.72,1.72c0,0.95406 -0.76594,1.72 -1.72,1.72c-0.95406,0 -1.72,-0.76594 -1.72,-1.72c0,-0.95406 0.76594,-1.72 1.72,-1.72zM108.36,58.48c0.95406,0 1.72,0.76594 1.72,1.72c0,0.95406 -0.76594,1.72 -1.72,1.72c-0.95406,0 -1.72,-0.76594 -1.72,-1.72c0,-0.95406 0.76594,-1.72 1.72,-1.72zM18.92,65.36c0.95406,0 1.72,0.76594 1.72,1.72c0,0.95406 -0.76594,1.72 -1.72,1.72c-0.95406,0 -1.72,-0.76594 -1.72,-1.72c0,-0.95406 0.76594,-1.72 1.72,-1.72zM25.8,65.36c0.95406,0 1.72,0.76594 1.72,1.72c0,0.95406 -0.76594,1.72 -1.72,1.72c-0.95406,0 -1.72,-0.76594 -1.72,-1.72c0,-0.95406 0.76594,-1.72 1.72,-1.72zM32.68,65.36c0.95406,0 1.72,0.76594 1.72,1.72c0,0.95406 -0.76594,1.72 -1.72,1.72c-0.95406,0 -1.72,-0.76594 -1.72,-1.72c0,-0.95406 0.76594,-1.72 1.72,-1.72zM39.56,65.36c0.95406,0 1.72,0.76594 1.72,1.72c0,0.95406 -0.76594,1.72 -1.72,1.72c-0.95406,0 -1.72,-0.76594 -1.72,-1.72c0,-0.95406 0.76594,-1.72 1.72,-1.72zM46.44,65.36c0.95406,0 1.72,0.76594 1.72,1.72c0,0.95406 -0.76594,1.72 -1.72,1.72c-0.95406,0 -1.72,-0.76594 -1.72,-1.72c0,-0.95406 0.76594,-1.72 1.72,-1.72zM53.32,65.36c0.95406,0 1.72,0.76594 1.72,1.72c0,0.95406 -0.76594,1.72 -1.72,1.72c-0.95406,0 -1.72,-0.76594 -1.72,-1.72c0,-0.95406 0.76594,-1.72 1.72,-1.72zM60.2,65.36c0.95406,0 1.72,0.76594 1.72,1.72c0,0.95406 -0.76594,1.72 -1.72,1.72c-0.95406,0 -1.72,-0.76594 -1.72,-1.72c0,-0.95406 0.76594,-1.72 1.72,-1.72zM67.08,65.36c0.95406,0 1.72,0.76594 1.72,1.72c0,0.95406 -0.76594,1.72 -1.72,1.72c-0.95406,0 -1.72,-0.76594 -1.72,-1.72c0,-0.95406 0.76594,-1.72 1.72,-1.72zM73.96,65.36c0.95406,0 1.72,0.76594 1.72,1.72c0,0.95406 -0.76594,1.72 -1.72,1.72c-0.95406,0 -1.72,-0.76594 -1.72,-1.72c0,-0.95406 0.76594,-1.72 1.72,-1.72zM80.84,65.36c0.95406,0 1.72,0.76594 1.72,1.72c0,0.95406 -0.76594,1.72 -1.72,1.72c-0.95406,0 -1.72,-0.76594 -1.72,-1.72c0,-0.95406 0.76594,-1.72 1.72,-1.72zM87.72,65.36c0.95406,0 1.72,0.76594 1.72,1.72c0,0.95406 -0.76594,1.72 -1.72,1.72c-0.95406,0 -1.72,-0.76594 -1.72,-1.72c0,-0.95406 0.76594,-1.72 1.72,-1.72zM94.6,65.36c0.95406,0 1.72,0.76594 1.72,1.72c0,0.95406 -0.76594,1.72 -1.72,1.72c-0.95406,0 -1.72,-0.76594 -1.72,-1.72c0,-0.95406 0.76594,-1.72 1.72,-1.72zM101.48,65.36c0.95406,0 1.72,0.76594 1.72,1.72c0,0.95406 -0.76594,1.72 -1.72,1.72c-0.95406,0 -1.72,-0.76594 -1.72,-1.72c0,-0.95406 0.76594,-1.72 1.72,-1.72zM108.36,65.36c0.95406,0 1.72,0.76594 1.72,1.72c0,0.95406 -0.76594,1.72 -1.72,1.72c-0.95406,0 -1.72,-0.76594 -1.72,-1.72c0,-0.95406 0.76594,-1.72 1.72,-1.72zM25.8,72.24c0.95406,0 1.72,0.76594 1.72,1.72c0,0.95406 -0.76594,1.72 -1.72,1.72c-0.95406,0 -1.72,-0.76594 -1.72,-1.72c0,-0.95406 0.76594,-1.72 1.72,-1.72zM39.56,72.24c0.95406,0 1.72,0.76594 1.72,1.72c0,0.95406 -0.76594,1.72 -1.72,1.72c-0.95406,0 -1.72,-0.76594 -1.72,-1.72c0,-0.95406 0.76594,-1.72 1.72,-1.72zM53.32,72.24c0.95406,0 1.72,0.76594 1.72,1.72c0,0.95406 -0.76594,1.72 -1.72,1.72c-0.95406,0 -1.72,-0.76594 -1.72,-1.72c0,-0.95406 0.76594,-1.72 1.72,-1.72zM67.08,72.24c0.95406,0 1.72,0.76594 1.72,1.72c0,0.95406 -0.76594,1.72 -1.72,1.72c-0.95406,0 -1.72,-0.76594 -1.72,-1.72c0,-0.95406 0.76594,-1.72 1.72,-1.72zM80.84,72.24c0.95406,0 1.72,0.76594 1.72,1.72c0,0.95406 -0.76594,1.72 -1.72,1.72c-0.95406,0 -1.72,-0.76594 -1.72,-1.72c0,-0.95406 0.76594,-1.72 1.72,-1.72zM94.6,72.24c0.95406,0 1.72,0.76594 1.72,1.72c0,0.95406 -0.76594,1.72 -1.72,1.72c-0.95406,0 -1.72,-0.76594 -1.72,-1.72c0,-0.95406 0.76594,-1.72 1.72,-1.72zM18.92,79.12c0.95406,0 1.72,0.76594 1.72,1.72c0,0.95406 -0.76594,1.72 -1.72,1.72c-0.95406,0 -1.72,-0.76594 -1.72,-1.72c0,-0.95406 0.76594,-1.72 1.72,-1.72zM25.8,79.12c0.95406,0 1.72,0.76594 1.72,1.72c0,0.95406 -0.76594,1.72 -1.72,1.72c-0.95406,0 -1.72,-0.76594 -1.72,-1.72c0,-0.95406 0.76594,-1.72 1.72,-1.72zM32.68,79.12c0.95406,0 1.72,0.76594 1.72,1.72c0,0.95406 -0.76594,1.72 -1.72,1.72c-0.95406,0 -1.72,-0.76594 -1.72,-1.72c0,-0.95406 0.76594,-1.72 1.72,-1.72zM39.56,79.12c0.95406,0 1.72,0.76594 1.72,1.72c0,0.95406 -0.76594,1.72 -1.72,1.72c-0.95406,0 -1.72,-0.76594 -1.72,-1.72c0,-0.95406 0.76594,-1.72 1.72,-1.72zM46.44,79.12c0.95406,0 1.72,0.76594 1.72,1.72c0,0.95406 -0.76594,1.72 -1.72,1.72c-0.95406,0 -1.72,-0.76594 -1.72,-1.72c0,-0.95406 0.76594,-1.72 1.72,-1.72zM53.32,79.12c0.95406,0 1.72,0.76594 1.72,1.72c0,0.95406 -0.76594,1.72 -1.72,1.72c-0.95406,0 -1.72,-0.76594 -1.72,-1.72c0,-0.95406 0.76594,-1.72 1.72,-1.72zM60.2,79.12c0.95406,0 1.72,0.76594 1.72,1.72c0,0.95406 -0.76594,1.72 -1.72,1.72c-0.95406,0 -1.72,-0.76594 -1.72,-1.72c0,-0.95406 0.76594,-1.72 1.72,-1.72zM67.08,79.12c0.95406,0 1.72,0.76594 1.72,1.72c0,0.95406 -0.76594,1.72 -1.72,1.72c-0.95406,0 -1.72,-0.76594 -1.72,-1.72c0,-0.95406 0.76594,-1.72 1.72,-1.72zM73.96,79.12c0.95406,0 1.72,0.76594 1.72,1.72c0,0.95406 -0.76594,1.72 -1.72,1.72c-0.95406,0 -1.72,-0.76594 -1.72,-1.72c0,-0.95406 0.76594,-1.72 1.72,-1.72zM80.84,79.12c0.95406,0 1.72,0.76594 1.72,1.72c0,0.95406 -0.76594,1.72 -1.72,1.72c-0.95406,0 -1.72,-0.76594 -1.72,-1.72c0,-0.95406 0.76594,-1.72 1.72,-1.72zM87.72,79.12c0.95406,0 1.72,0.76594 1.72,1.72c0,0.95406 -0.76594,1.72 -1.72,1.72c-0.95406,0 -1.72,-0.76594 -1.72,-1.72c0,-0.95406 0.76594,-1.72 1.72,-1.72zM94.6,79.12c0.95406,0 1.72,0.76594 1.72,1.72c0,0.95406 -0.76594,1.72 -1.72,1.72c-0.95406,0 -1.72,-0.76594 -1.72,-1.72c0,-0.95406 0.76594,-1.72 1.72,-1.72zM25.8,86c0.95406,0 1.72,0.76594 1.72,1.72c0,0.95406 -0.76594,1.72 -1.72,1.72c-0.95406,0 -1.72,-0.76594 -1.72,-1.72c0,-0.95406 0.76594,-1.72 1.72,-1.72zM39.56,86c0.95406,0 1.72,0.76594 1.72,1.72c0,0.95406 -0.76594,1.72 -1.72,1.72c-0.95406,0 -1.72,-0.76594 -1.72,-1.72c0,-0.95406 0.76594,-1.72 1.72,-1.72zM53.32,86c0.95406,0 1.72,0.76594 1.72,1.72c0,0.95406 -0.76594,1.72 -1.72,1.72c-0.95406,0 -1.72,-0.76594 -1.72,-1.72c0,-0.95406 0.76594,-1.72 1.72,-1.72zM67.08,86c0.95406,0 1.72,0.76594 1.72,1.72c0,0.95406 -0.76594,1.72 -1.72,1.72c-0.95406,0 -1.72,-0.76594 -1.72,-1.72c0,-0.95406 0.76594,-1.72 1.72,-1.72zM80.84,86c0.95406,0 1.72,0.76594 1.72,1.72c0,0.95406 -0.76594,1.72 -1.72,1.72c-0.95406,0 -1.72,-0.76594 -1.72,-1.72c0,-0.95406 0.76594,-1.72 1.72,-1.72zM18.92,92.88c0.95406,0 1.72,0.76594 1.72,1.72c0,0.95406 -0.76594,1.72 -1.72,1.72c-0.95406,0 -1.72,-0.76594 -1.72,-1.72c0,-0.95406 0.76594,-1.72 1.72,-1.72zM25.8,92.88c0.95406,0 1.72,0.76594 1.72,1.72c0,0.95406 -0.76594,1.72 -1.72,1.72c-0.95406,0 -1.72,-0.76594 -1.72,-1.72c0,-0.95406 0.76594,-1.72 1.72,-1.72zM32.68,92.88c0.95406,0 1.72,0.76594 1.72,1.72c0,0.95406 -0.76594,1.72 -1.72,1.72c-0.95406,0 -1.72,-0.76594 -1.72,-1.72c0,-0.95406 0.76594,-1.72 1.72,-1.72zM39.56,92.88c0.95406,0 1.72,0.76594 1.72,1.72c0,0.95406 -0.76594,1.72 -1.72,1.72c-0.95406,0 -1.72,-0.76594 -1.72,-1.72c0,-0.95406 0.76594,-1.72 1.72,-1.72zM46.44,92.88c0.95406,0 1.72,0.76594 1.72,1.72c0,0.95406 -0.76594,1.72 -1.72,1.72c-0.95406,0 -1.72,-0.76594 -1.72,-1.72c0,-0.95406 0.76594,-1.72 1.72,-1.72zM53.32,92.88c0.95406,0 1.72,0.76594 1.72,1.72c0,0.95406 -0.76594,1.72 -1.72,1.72c-0.95406,0 -1.72,-0.76594 -1.72,-1.72c0,-0.95406 0.76594,-1.72 1.72,-1.72zM60.2,92.88c0.95406,0 1.72,0.76594 1.72,1.72c0,0.95406 -0.76594,1.72 -1.72,1.72c-0.95406,0 -1.72,-0.76594 -1.72,-1.72c0,-0.95406 0.76594,-1.72 1.72,-1.72zM67.08,92.88c0.95406,0 1.72,0.76594 1.72,1.72c0,0.95406 -0.76594,1.72 -1.72,1.72c-0.95406,0 -1.72,-0.76594 -1.72,-1.72c0,-0.95406 0.76594,-1.72 1.72,-1.72zM73.96,92.88c0.95406,0 1.72,0.76594 1.72,1.72c0,0.95406 -0.76594,1.72 -1.72,1.72c-0.95406,0 -1.72,-0.76594 -1.72,-1.72c0,-0.95406 0.76594,-1.72 1.72,-1.72zM80.84,92.88c0.95406,0 1.72,0.76594 1.72,1.72c0,0.95406 -0.76594,1.72 -1.72,1.72c-0.95406,0 -1.72,-0.76594 -1.72,-1.72c0,-0.95406 0.76594,-1.72 1.72,-1.72zM25.8,99.76c0.95406,0 1.72,0.76594 1.72,1.72c0,0.95406 -0.76594,1.72 -1.72,1.72c-0.95406,0 -1.72,-0.76594 -1.72,-1.72c0,-0.95406 0.76594,-1.72 1.72,-1.72zM39.56,99.76c0.95406,0 1.72,0.76594 1.72,1.72c0,0.95406 -0.76594,1.72 -1.72,1.72c-0.95406,0 -1.72,-0.76594 -1.72,-1.72c0,-0.95406 0.76594,-1.72 1.72,-1.72zM53.32,99.76c0.95406,0 1.72,0.76594 1.72,1.72c0,0.95406 -0.76594,1.72 -1.72,1.72c-0.95406,0 -1.72,-0.76594 -1.72,-1.72c0,-0.95406 0.76594,-1.72 1.72,-1.72zM67.08,99.76c0.95406,0 1.72,0.76594 1.72,1.72c0,0.95406 -0.76594,1.72 -1.72,1.72c-0.95406,0 -1.72,-0.76594 -1.72,-1.72c0,-0.95406 0.76594,-1.72 1.72,-1.72zM18.92,106.64c0.95406,0 1.72,0.76594 1.72,1.72c0,0.95406 -0.76594,1.72 -1.72,1.72c-0.95406,0 -1.72,-0.76594 -1.72,-1.72c0,-0.95406 0.76594,-1.72 1.72,-1.72zM25.8,106.64c0.95406,0 1.72,0.76594 1.72,1.72c0,0.95406 -0.76594,1.72 -1.72,1.72c-0.95406,0 -1.72,-0.76594 -1.72,-1.72c0,-0.95406 0.76594,-1.72 1.72,-1.72zM32.68,106.64c0.95406,0 1.72,0.76594 1.72,1.72c0,0.95406 -0.76594,1.72 -1.72,1.72c-0.95406,0 -1.72,-0.76594 -1.72,-1.72c0,-0.95406 0.76594,-1.72 1.72,-1.72zM39.56,106.64c0.95406,0 1.72,0.76594 1.72,1.72c0,0.95406 -0.76594,1.72 -1.72,1.72c-0.95406,0 -1.72,-0.76594 -1.72,-1.72c0,-0.95406 0.76594,-1.72 1.72,-1.72zM46.44,106.64c0.95406,0 1.72,0.76594 1.72,1.72c0,0.95406 -0.76594,1.72 -1.72,1.72c-0.95406,0 -1.72,-0.76594 -1.72,-1.72c0,-0.95406 0.76594,-1.72 1.72,-1.72zM53.32,106.64c0.95406,0 1.72,0.76594 1.72,1.72c0,0.95406 -0.76594,1.72 -1.72,1.72c-0.95406,0 -1.72,-0.76594 -1.72,-1.72c0,-0.95406 0.76594,-1.72 1.72,-1.72zM60.2,106.64c0.95406,0 1.72,0.76594 1.72,1.72c0,0.95406 -0.76594,1.72 -1.72,1.72c-0.95406,0 -1.72,-0.76594 -1.72,-1.72c0,-0.95406 0.76594,-1.72 1.72,-1.72zM67.08,106.64c0.95406,0 1.72,0.76594 1.72,1.72c0,0.95406 -0.76594,1.72 -1.72,1.72c-0.95406,0 -1.72,-0.76594 -1.72,-1.72c0,-0.95406 0.76594,-1.72 1.72,-1.72zM25.8,113.52c0.95406,0 1.72,0.76594 1.72,1.72c0,0.95406 -0.76594,1.72 -1.72,1.72c-0.95406,0 -1.72,-0.76594 -1.72,-1.72c0,-0.95406 0.76594,-1.72 1.72,-1.72zM39.56,113.52c0.95406,0 1.72,0.76594 1.72,1.72c0,0.95406 -0.76594,1.72 -1.72,1.72c-0.95406,0 -1.72,-0.76594 -1.72,-1.72c0,-0.95406 0.76594,-1.72 1.72,-1.72zM53.32,113.52c0.95406,0 1.72,0.76594 1.72,1.72c0,0.95406 -0.76594,1.72 -1.72,1.72c-0.95406,0 -1.72,-0.76594 -1.72,-1.72c0,-0.95406 0.76594,-1.72 1.72,-1.72zM134.16,120.0775l-34.7225,34.7225h34.7225zM18.92,120.4c0.95406,0 1.72,0.76594 1.72,1.72c0,0.95406 -0.76594,1.72 -1.72,1.72c-0.95406,0 -1.72,-0.76594 -1.72,-1.72c0,-0.95406 0.76594,-1.72 1.72,-1.72zM25.8,120.4c0.95406,0 1.72,0.76594 1.72,1.72c0,0.95406 -0.76594,1.72 -1.72,1.72c-0.95406,0 -1.72,-0.76594 -1.72,-1.72c0,-0.95406 0.76594,-1.72 1.72,-1.72zM32.68,120.4c0.95406,0 1.72,0.76594 1.72,1.72c0,0.95406 -0.76594,1.72 -1.72,1.72c-0.95406,0 -1.72,-0.76594 -1.72,-1.72c0,-0.95406 0.76594,-1.72 1.72,-1.72zM39.56,120.4c0.95406,0 1.72,0.76594 1.72,1.72c0,0.95406 -0.76594,1.72 -1.72,1.72c-0.95406,0 -1.72,-0.76594 -1.72,-1.72c0,-0.95406 0.76594,-1.72 1.72,-1.72zM46.44,120.4c0.95406,0 1.72,0.76594 1.72,1.72c0,0.95406 -0.76594,1.72 -1.72,1.72c-0.95406,0 -1.72,-0.76594 -1.72,-1.72c0,-0.95406 0.76594,-1.72 1.72,-1.72zM53.32,120.4c0.95406,0 1.72,0.76594 1.72,1.72c0,0.95406 -0.76594,1.72 -1.72,1.72c-0.95406,0 -1.72,-0.76594 -1.72,-1.72c0,-0.95406 0.76594,-1.72 1.72,-1.72zM25.8,127.28c0.95406,0 1.72,0.76594 1.72,1.72c0,0.95406 -0.76594,1.72 -1.72,1.72c-0.95406,0 -1.72,-0.76594 -1.72,-1.72c0,-0.95406 0.76594,-1.72 1.72,-1.72zM39.56,127.28c0.95406,0 1.72,0.76594 1.72,1.72c0,0.95406 -0.76594,1.72 -1.72,1.72c-0.95406,0 -1.72,-0.76594 -1.72,-1.72c0,-0.95406 0.76594,-1.72 1.72,-1.72zM18.92,134.16c0.95406,0 1.72,0.76594 1.72,1.72c0,0.95406 -0.76594,1.72 -1.72,1.72c-0.95406,0 -1.72,-0.76594 -1.72,-1.72c0,-0.95406 0.76594,-1.72 1.72,-1.72zM25.8,134.16c0.95406,0 1.72,0.76594 1.72,1.72c0,0.95406 -0.76594,1.72 -1.72,1.72c-0.95406,0 -1.72,-0.76594 -1.72,-1.72c0,-0.95406 0.76594,-1.72 1.72,-1.72zM32.68,134.16c0.95406,0 1.72,0.76594 1.72,1.72c0,0.95406 -0.76594,1.72 -1.72,1.72c-0.95406,0 -1.72,-0.76594 -1.72,-1.72c0,-0.95406 0.76594,-1.72 1.72,-1.72zM39.56,134.16c0.95406,0 1.72,0.76594 1.72,1.72c0,0.95406 -0.76594,1.72 -1.72,1.72c-0.95406,0 -1.72,-0.76594 -1.72,-1.72c0,-0.95406 0.76594,-1.72 1.72,-1.72zM122.12,134.16c0.95406,0 1.72,0.76594 1.72,1.72c0,0.95406 -0.76594,1.72 -1.72,1.72c-0.95406,0 -1.72,-0.76594 -1.72,-1.72c0,-0.95406 0.76594,-1.72 1.72,-1.72zM25.8,141.04c0.95406,0 1.72,0.76594 1.72,1.72c0,0.95406 -0.76594,1.72 -1.72,1.72c-0.95406,0 -1.72,-0.76594 -1.72,-1.72c0,-0.95406 0.76594,-1.72 1.72,-1.72zM39.56,141.04c0.95406,0 1.72,0.76594 1.72,1.72c0,0.95406 -0.76594,1.72 -1.72,1.72c-0.95406,0 -1.72,-0.76594 -1.72,-1.72c0,-0.95406 0.76594,-1.72 1.72,-1.72zM122.12,141.04c0.95406,0 1.72,0.76594 1.72,1.72c0,0.95406 -0.76594,1.72 -1.72,1.72c-0.95406,0 -1.72,-0.76594 -1.72,-1.72c0,-0.95406 0.76594,-1.72 1.72,-1.72z"></path></g></g></svg>