<svg version="1.1" xmlns="http://www.w3.org/2000/svg" xmlns:xlink="http://www.w3.org/1999/xlink" viewBox="0 0 172 172"><g fill="none" fill-rule="nonzero" stroke="none" stroke-width="1" stroke-linecap="butt" stroke-linejoin="miter" stroke-miterlimit="10" stroke-dasharray="" stroke-dashoffset="0" font-family="none" font-weight="none" font-size="none" text-anchor="none" style="mix-blend-mode: normal"><path d="M0,172v-172h172v172z" fill="#333333"></path><g fill="#666666"><path d="M75.63969,99.29238v-1.58294c0,-8.815 4.27044,-14.66837 13.2225,-20.04069c8.33394,-5.02831 11.29556,-9.159 11.29556,-15.91c0,-8.127 -6.26725,-13.70625 -15.42625,-13.70625c-8.33394,0 -13.84331,4.13338 -16.04706,11.63956c-1.37869,4.27044 -3.51256,5.78619 -6.95525,5.78619c-4.27044,0 -6.68113,-2.54775 -6.68113,-6.74831c0,-2.96162 0.62081,-5.37231 1.85975,-8.05712c4.20056,-9.503 14.66837,-15.28919 28.44181,-15.28919c17.974,0 30.44131,10.53769 30.44131,25.757c0,10.67475 -5.37231,17.974 -14.46144,23.41619c-8.10281,4.773 -10.76344,8.11356 -11.42994,13.78419c-0.0645,0.54825 -0.11019,1.118 -0.13975,1.71194c-0.344,4.4075 -2.41069,7.29925 -6.88806,7.29925c-4.82137,-0.00269 -7.23206,-3.51525 -7.23206,-8.05981zM73.84981,127.73419c0,-5.02831 3.99362,-8.88487 9.02194,-8.88487c5.16537,0 9.09181,3.85656 9.09181,8.88487c0,5.02831 -3.92644,8.88488 -9.09181,8.88488c-5.02831,0 -9.02194,-3.85656 -9.02194,-8.88488z"></path></g><path d="" fill="none"></path></g></svg>