<svg version="1.1" xmlns="http://www.w3.org/2000/svg" xmlns:xlink="http://www.w3.org/1999/xlink" viewBox="0 0 172 172"><g transform=""><g fill="none" fill-rule="nonzero" stroke="none" stroke-width="1" stroke-linecap="butt" stroke-linejoin="miter" stroke-miterlimit="10" stroke-dasharray="" stroke-dashoffset="0" font-family="none" font-weight="none" font-size="none" text-anchor="none" style="mix-blend-mode: normal"><path d="M0,172v-172h172v172z" fill="#333333"></path><g fill="#666666"><path d="M64.5,7.16667v14.33333h43v-14.33333zM86,28.66667c-35.67175,0 -64.5,28.82825 -64.5,64.5c0,35.67175 28.82825,64.5 64.5,64.5c35.67175,0 64.5,-28.82825 64.5,-64.5c0,-15.75645 -5.63678,-30.17088 -14.99121,-41.3623l10.77799,-12.83561l-10.97396,-9.22428l-10.23209,12.16374c-10.84517,-8.27469 -24.35909,-13.24154 -39.08073,-13.24154zM86,43c28.02559,0 50.16667,22.14108 50.16667,50.16667c0,28.02559 -22.14108,50.16667 -50.16667,50.16667c-28.02558,0 -50.16667,-22.14108 -50.16667,-50.16667c0,-14.01279 5.53282,-26.55691 14.57129,-35.59538l25.46127,25.46127c-2.68815,2.68758 -4.19865,6.3329 -4.19922,10.13411c0,7.91608 6.41725,14.33333 14.33333,14.33333c7.91608,0 14.33333,-6.41725 14.33333,-14.33333c0,-7.91608 -6.41725,-14.33333 -14.33333,-14.33333z"></path></g><path d="" fill="none"></path></g></g></svg>